# xmcd
#
# Track frame offsets:
#	150
#	18332
#	34074
#	47319
#	60718
#	78819
#	96167
#	109113
#	130403
#	143718
#	157004
#	169709
#	190487
#	210333
#	227746
#	243655
#	251448
#	264213
#	280955
#
# Disc length: 3855 seconds
# Revision: 1
# Processed by: cddbd v1.5.2PL0 Copyright (c) Steve Scherf et al.
# Submitted via: dBpowerAMP V12.0
#
DISCID=fd0f0d13
DTITLE=Various Artist - Brushwood • Songs and Stories
DYEAR=2017
DGENRE=Country
TTITLE0=Norman Blake - The Countess Lola Montez
TTITLE1=Norman Blake • Nancy Blake - How The Weary World Wears Away
TTITLE2=Norman Blake - Bunk Johnson (Trumpet Man)
TTITLE3=Norman Blake • Nancy Blake - High Rollers
TTITLE4=Norman Blake - The Generic Rag
TTITLE5=Norman Blake - Waitin' For The Mail And Social Security
TTITLE6=Norman Blake - The Lantern Thru The Fog
TTITLE7=Norman Blake • Nancy Blake - There's A Storm Somewhere
TTITLE8=Norman Blake - Newsome Gap Rag
TTITLE9=Norman Blake • Nancy Blake - The Truth Will Stand (When This World's On Fire)
TTITLE10=Norman Blake - Sweet Banks Of Flowers (Georgie's Vision)
TTITLE11=Norman Blake • Nancy Blake - Look Away, So Far Away
TTITLE12=Norman Blake - The Fate Of Oliver Curtis Perry (Empire State Train Robber)
TTITLE13=Norman Blake - The Target Shooter
TTITLE14=Norman Blake - Fiddlin' Peg Leg Jackson On The Mourner's Bench
TTITLE15=Norman Blake - The Nameless Photograph
TTITLE16=Norman Blake - Cripple Charlie Clark
TTITLE17=Norman Blake - The Wreck On The Western and Atlantic (At Willowdale Curve)
TTITLE18=Norman Blake - Stay Down On The Farm
EXTD=
EXTT0=
EXTT1=
EXTT2=
EXTT3=
EXTT4=
EXTT5=
EXTT6=
EXTT7=
EXTT8=
EXTT9=
EXTT10=
EXTT11=
EXTT12=
EXTT13=
EXTT14=
EXTT15=
EXTT16=
EXTT17=
EXTT18=
PLAYORDER=
